{"scene":0,"asset":{"generator":"ImageToStl.com","version":"2.0"},"scenes":[{"name":"Scene","nodes":[0]}],"nodes":[{"name":"Node0","children":[1]},{"name":"Node1","mesh":0,"children":[2,3]},{"name":"Node2","mesh":1},{"name":"Node3","mesh":2}],"materials":[{"name":"#BEBCBAFF","pbrMetallicRoughness":{"baseColorFactor":[0.74509805,0.7372549,0.7294118,1.0],"metallicFactor":0.05,"roughnessFactor":0.5},"doubleSided":true},{"name":"#F2CB7CFF","pbrMetallicRoughness":{"baseColorFactor":[0.9490196,0.79607844,0.4862745,1.0],"metallicFactor":0.05,"roughnessFactor":0.5},"doubleSided":true},{"name":"#4CAFF9FF","pbrMetallicRoughness":{"baseColorFactor":[0.29803923,0.6862745,0.9764706,1.0],"metallicFactor":0.05,"roughnessFactor":0.5},"doubleSided":true}],"meshes":[{"name":"Mesh0","primitives":[{"indices":1,"material":1,"attributes":{"POSITION":0}}]},{"name":"Mesh0","primitives":[{"indices":3,"material":2,"attributes":{"POSITION":2}}]},{"name":"Mesh0","primitives":[{"indices":5,"material":0,"attributes":{"POSITION":4}}]}],"accessors":[{"bufferView":0,"componentType":5126,"count":258,"type":"VEC3","min":[-2.5,5.5,20.5],"max":[2.5,10.5,29.0]},{"bufferView":1,"componentType":5123,"count":1536,"type":"SCALAR"},{"bufferView":2,"componentType":5126,"count":90,"type":"VEC3","min":[-8.3,-17.0,2.5],"max":[8.3,-11.274307,19.0]},{"bufferView":3,"componentType":5123,"count":528,"type":"SCALAR"},{"bufferView":4,"componentType":5126,"count":1279,"type":"VEC3","min":[-20.998913,-15.5,0.0],"max":[20.998913,13.99567,20.5]},{"bufferView":5,"componentType":5123,"count":7686,"type":"SCALAR"}],"bufferViews":[{"target":34962,"buffer":0,"byteLength":3096,"byteOffset":0},{"target":34963,"buffer":0,"byteLength":3072,"byteOffset":3096},{"target":34962,"buffer":0,"byteLength":1080,"byteOffset":6168},{"target":34963,"buffer":0,"byteLength":1056,"byteOffset":7248},{"target":34962,"buffer":0,"byteLength":15348,"byteOffset":8304},{"target":34963,"buffer":0,"byteLength":15372,"byteOffset":23652}],"buffers":[{"byteLength":39024,"uri":"data:application/octet-stream;base64,"}]}