{"scene":0,"asset":{"generator":"ImageToStl.com","version":"2.0"},"scenes":[{"name":"Scene","nodes":[0]}],"nodes":[{"name":"Node0","children":[1]},{"name":"Node1","mesh":0,"children":[2,3,4,5]},{"name":"Node2","mesh":1},{"name":"Node3","mesh":2},{"name":"Node4","mesh":3},{"name":"Node5","mesh":4}],"materials":[{"name":"#252424FF","pbrMetallicRoughness":{"baseColorFactor":[0.14509805,0.14117648,0.14117648,1.0],"metallicFactor":0.05,"roughnessFactor":0.5},"doubleSided":true},{"name":"#DBBC7EFF","pbrMetallicRoughness":{"baseColorFactor":[0.85882354,0.7372549,0.49411765,1.0],"metallicFactor":0.05,"roughnessFactor":0.5},"doubleSided":true},{"name":"#B2190CFF","pbrMetallicRoughness":{"baseColorFactor":[0.69803923,0.09803922,0.047058824,1.0],"metallicFactor":0.05,"roughnessFactor":0.5},"doubleSided":true},{"name":"#D2D1C7FF","pbrMetallicRoughness":{"baseColorFactor":[0.8235294,0.81960785,0.78039217,1.0],"metallicFactor":0.05,"roughnessFactor":0.5},"doubleSided":true},{"name":"#4F7B68FF","pbrMetallicRoughness":{"baseColorFactor":[0.30980393,0.48235294,0.40784314,1.0],"metallicFactor":0.05,"roughnessFactor":0.5},"doubleSided":true}],"meshes":[{"name":"Mesh0","primitives":[{"indices":1,"material":0,"attributes":{"POSITION":0}}]},{"name":"Mesh0","primitives":[{"indices":3,"material":1,"attributes":{"POSITION":2}}]},{"name":"Mesh0","primitives":[{"indices":5,"material":2,"attributes":{"POSITION":4}}]},{"name":"Mesh0","primitives":[{"indices":7,"material":3,"attributes":{"POSITION":6}}]},{"name":"Mesh0","primitives":[{"indices":9,"material":4,"attributes":{"POSITION":8}}]}],"accessors":[{"bufferView":0,"componentType":5126,"count":536,"type":"VEC3","min":[182.7,-103.02,1.65],"max":[209.52,-42.32,4.19]},{"bufferView":1,"componentType":5123,"count":2856,"type":"SCALAR"},{"bufferView":2,"componentType":5126,"count":624,"type":"VEC3","min":[183.65,-102.07,-1.35],"max":[208.57,-43.27,10.19]},{"bufferView":3,"componentType":5123,"count":2808,"type":"SCALAR"},{"bufferView":4,"componentType":5126,"count":2473,"type":"VEC3","min":[184.0809,-87.39997,4.65],"max":[189.48,-81.60003,13.25]},{"bufferView":5,"componentType":5123,"count":14814,"type":"SCALAR"},{"bufferView":6,"componentType":5126,"count":16,"type":"VEC3","min":[185.51,-84.7,-0.85],"max":[188.45,-84.3,4.65]},{"bufferView":7,"componentType":5123,"count":60,"type":"SCALAR"},{"bufferView":8,"componentType":5126,"count":16388,"type":"VEC3","min":[177.75,-105.0,0.0],"max":[214.0,-40.0,1.6]},{"bufferView":9,"componentType":5123,"count":99096,"type":"SCALAR"}],"bufferViews":[{"target":34962,"buffer":0,"byteLength":6432,"byteOffset":0},{"target":34963,"buffer":0,"byteLength":5712,"byteOffset":6432},{"target":34962,"buffer":0,"byteLength":7488,"byteOffset":12144},{"target":34963,"buffer":0,"byteLength":5616,"byteOffset":19632},{"target":34962,"buffer":0,"byteLength":29676,"byteOffset":25248},{"target":34963,"buffer":0,"byteLength":29628,"byteOffset":54924},{"target":34962,"buffer":0,"byteLength":192,"byteOffset":84552},{"target":34963,"buffer":0,"byteLength":120,"byteOffset":84744},{"target":34962,"buffer":0,"byteLength":196656,"byteOffset":84864},{"target":34963,"buffer":0,"byteLength":198192,"byteOffset":281520}],"buffers":[{"byteLength":479712,"uri":"data:application/octet-stream;base64,"}]}